<?xml version="1.0" encoding="UTF-8" standalone="no"?>
<svg
   xmlns="http://www.w3.org/2000/svg"
   version="1.1"
   id="svg2"
   preserveAspectRatio="xMidYMax meet"
   viewBox="0 0 338.60013 44.09"
   height="65"
   width="500">
  <defs
     id="defs10" />
  <path
     id="path4224"
     style="font-style:normal;font-variant:normal;font-weight:bold;font-stretch:normal;font-size:47.75328445px;line-height:108.00000429%;font-family:'Radio Space Bold';-inkscape-font-specification:'Radio Space Bold, Bold';text-align:end;letter-spacing:2.38766432px;word-spacing:0px;writing-mode:lr-tb;text-anchor:end;fill:#000000;fill-opacity:1;stroke:none;stroke-width:1px;stroke-linecap:butt;stroke-linejoin:miter;stroke-opacity:1"
     d="m 30.115007,44.089993 8.1052,0 0,-36.1240386 q 0,-7.96544576911 -9.921875,-7.96544576911 l -18.3764567,0 Q 0,5.0863089e-4 0,7.9659544 l 0,36.1240386 8.0353325,0 0,-34.7265798 q 0,-1.2576999 2.6551455,-1.2576999 l 16.769384,0 q 2.655145,0 2.655145,1.2576999 l 0,34.7265798 z" />
  <path
     id="path4226"
     style="font-style:normal;font-variant:normal;font-weight:bold;font-stretch:normal;font-size:47.75328445px;line-height:108.00000429%;font-family:'Radio Space Bold';-inkscape-font-specification:'Radio Space Bold, Bold';text-align:end;letter-spacing:2.38766432px;word-spacing:0px;writing-mode:lr-tb;text-anchor:end;fill:#000000;fill-opacity:1;stroke:none;stroke-width:1px;stroke-linecap:butt;stroke-linejoin:miter;stroke-opacity:1"
     d="m 79.598883,44.089993 8.244936,0 0,-36.1240386 q 0,-7.96544576911 -9.991757,-7.96544576911 l -18.306575,0 q -9.921875,0 -9.921875,8.10520466911 l 27.320112,0 q 2.655159,0 2.655159,1.2576999 l 0,8.5943008 -29.975271,0 0,26.132289 7.895582,0 0,-17.957205 22.079689,0 0,17.957205 z" />
  <path
     id="path4228"
     style="font-style:normal;font-variant:normal;font-weight:bold;font-stretch:normal;font-size:47.75328445px;line-height:108.00000429%;font-family:'Radio Space Bold';-inkscape-font-specification:'Radio Space Bold, Bold';text-align:end;letter-spacing:2.38766432px;word-spacing:0px;writing-mode:lr-tb;text-anchor:end;fill:#000000;fill-opacity:1;stroke:none;stroke-width:1px;stroke-linecap:butt;stroke-linejoin:miter;stroke-opacity:1"
     d="m 129.08274,44.089993 8.10521,0 0,-36.1240386 q 0,-7.96544576911 -9.92189,-7.96544576911 l -18.37644,0 q -9.921896,0 -9.921896,7.96544576911 l 0,36.1240386 8.035326,0 0,-34.7265798 q 0,-1.2576999 2.65516,-1.2576999 l 16.76938,0 q 2.65515,0 2.65515,1.2576999 l 0,34.7265798 z" />
  <path
     style="opacity:1;fill:#ff0066;fill-opacity:1;stroke:none;stroke-width:0.12318316;stroke-linecap:round;stroke-linejoin:round;stroke-miterlimit:4;stroke-dasharray:none;stroke-dashoffset:0;stroke-opacity:1"
     id="path4144"
     d="m 188.11196,33.067512 -19.63853,11.022481 -19.63848,-11.022481 0,-22.044992 L 168.47343,-1.3650043e-6 188.11196,11.02252 Z" />
  <path
     id="path4231"
     d="m 198.24076,1.1863403e-4 0,44.08984436597 7.66013,0 0,-17.957035 21.41016,0 0,17.957035 7.99611,0 0,-35.9843697 c 30.95396,0 65.05761,0 92.58593,0 1.76187,0 2.64063,0.4193466 2.64063,1.2578199 l 0,7.6171888 c 0,0.652145 -0.87876,0.976562 -2.64063,0.976562 l -26.4961,0 0,26.132809 7.65626,0 0,-18.027354 20.05858,0 c 6.32464,-0.0931 9.48828,-2.676439 9.48828,-7.753898 l 0,-10.410166 c -0.0904,-5.2637176 -3.34282,-7.89843636597 -9.7578,-7.89843636597 -34.10769,0 -70.12437,0 -101.53126,0 l 0,17.95703536597 -21.41016,0 0,-17.95703536597 z M 247.4009,10.410275 l 0,33.679698 7.58986,0 0,-33.679698 z m 34.38281,0 0,33.679698 7.58984,0 0,-33.679698 z"
     style="font-style:normal;font-variant:normal;font-weight:bold;font-stretch:normal;font-size:22.76984596px;line-height:108.00000429%;font-family:'Radio Space Bold';-inkscape-font-specification:'Radio Space Bold, Bold';text-align:end;letter-spacing:-3.43325996px;word-spacing:0px;writing-mode:lr-tb;text-anchor:end;fill:#000000;fill-opacity:1;stroke:none;stroke-width:1px;stroke-linecap:butt;stroke-linejoin:miter;stroke-opacity:1" />
  <path
     id="path4224-6"
     style="font-style:normal;font-variant:normal;font-weight:bold;font-stretch:normal;font-size:47.75328445px;line-height:108.00000429%;font-family:'Radio Space Bold';-inkscape-font-specification:'Radio Space Bold, Bold';text-align:end;letter-spacing:2.38766432px;word-spacing:0px;writing-mode:lr-tb;text-anchor:end;fill:#ffffff;fill-opacity:1;stroke:none;stroke-width:1px;stroke-linecap:butt;stroke-linejoin:miter;stroke-opacity:1"
     d="m 163.94492,30.947785 3.24212,0 0,-14.449785 q 0,-3.186215 -3.9688,-3.186215 l -7.35066,0 q -3.9688,0 -3.9688,3.186215 l 0,14.449785 3.21416,0 0,-13.890798 q 0,-0.503079 1.06208,-0.503079 l 6.70782,0 q 1.06208,0 1.06208,0.503079 l 0,13.890798 z" />
  <path
     id="path4219"
     d="m 187.71241,-34.614889 -7.65614,0 0,0.0079 7.65614,0 0,-0.0079 z"
     style="font-style:normal;font-variant:normal;font-weight:bold;font-stretch:normal;font-size:22.76984596px;line-height:108.00000429%;font-family:'Radio Space Bold';-inkscape-font-specification:'Radio Space Bold, Bold';text-align:end;letter-spacing:-3.43325996px;word-spacing:0px;writing-mode:lr-tb;text-anchor:end;fill:#000000;fill-opacity:1;stroke:none;stroke-width:1px;stroke-linecap:butt;stroke-linejoin:miter;stroke-opacity:1" />
  <path
     id="path4212"
     d="m 184.90593,30.944608 -0.008,0 0,-17.63246 -3.19592,0 0,7.182498 -8.564,0 0,-7.182498 -3.06396,0 0,17.635638 3.06396,0 0,-7.182498 8.564,0 0,7.182498 3.1986,0 0,-0.0032 z"
     style="font-style:normal;font-variant:normal;font-weight:bold;font-stretch:normal;font-size:22.76984596px;line-height:108.00000429%;font-family:'Radio Space Bold';-inkscape-font-specification:'Radio Space Bold, Bold';text-align:end;letter-spacing:-3.43325996px;word-spacing:0px;writing-mode:lr-tb;text-anchor:end;fill:#ffffff;fill-opacity:1;stroke:none;stroke-width:1px;stroke-linecap:butt;stroke-linejoin:miter;stroke-opacity:1" />
</svg>
