<?xml version="1.0" encoding="UTF-8" standalone="no"?>
<svg
   xmlns:dc="http://purl.org/dc/elements/1.1/"
   xmlns:cc="http://creativecommons.org/ns#"
   xmlns:rdf="http://www.w3.org/1999/02/22-rdf-syntax-ns#"
   xmlns:svg="http://www.w3.org/2000/svg"
   xmlns="http://www.w3.org/2000/svg"
   xmlns:sodipodi="http://sodipodi.sourceforge.net/DTD/sodipodi-0.dtd"
   xmlns:inkscape="http://www.inkscape.org/namespaces/inkscape"
   version="1.1"
   id="svg2"
   viewBox="0 0 338.60013 44.09"
   height="44.090004"
   width="338.60013"
   inkscape:version="0.91 r13725"
   sodipodi:docname="logo-inkscape.svg">
  <metadata
     id="metadata14">
    <rdf:RDF>
      <cc:Work
         rdf:about="">
        <dc:format>image/svg+xml</dc:format>
        <dc:type
           rdf:resource="http://purl.org/dc/dcmitype/StillImage" />
        <dc:title></dc:title>
      </cc:Work>
    </rdf:RDF>
  </metadata>
  <defs
     id="defs12" />
  <sodipodi:namedview
     pagecolor="#ffffff"
     bordercolor="#666666"
     borderopacity="1"
     objecttolerance="10"
     gridtolerance="10"
     guidetolerance="10"
     inkscape:pageopacity="0"
     inkscape:pageshadow="2"
     inkscape:window-width="3765"
     inkscape:window-height="2118"
     id="namedview10"
     showgrid="false"
     inkscape:zoom="4.6190177"
     inkscape:cx="209.08345"
     inkscape:cy="25.72697"
     inkscape:window-x="75"
     inkscape:window-y="42"
     inkscape:window-maximized="1"
     inkscape:current-layer="svg2" />
  <path
     id="path4224"
     style="font-style:normal;font-variant:normal;font-weight:bold;font-stretch:normal;font-size:47.75328445px;line-height:108.00000429%;font-family:'Radio Space Bold';-inkscape-font-specification:'Radio Space Bold, Bold';text-align:end;letter-spacing:2.38766432px;word-spacing:0px;writing-mode:lr-tb;text-anchor:end;fill:#000000;fill-opacity:1;stroke:none;stroke-width:1px;stroke-linecap:butt;stroke-linejoin:miter;stroke-opacity:1"
     d="m 30.115007,44.089993 8.1052,0 0,-36.1240386 q 0,-7.96544576911 -9.921875,-7.96544576911 l -18.3764567,0 Q 0,5.0863089e-4 0,7.9659544 l 0,36.1240386 8.0353325,0 0,-34.7265798 q 0,-1.2576999 2.6551455,-1.2576999 l 16.769384,0 q 2.655145,0 2.655145,1.2576999 l 0,34.7265798 z"
     inkscape:connector-curvature="0" />
  <path
     id="path4226"
     style="font-style:normal;font-variant:normal;font-weight:bold;font-stretch:normal;font-size:47.75328445px;line-height:108.00000429%;font-family:'Radio Space Bold';-inkscape-font-specification:'Radio Space Bold, Bold';text-align:end;letter-spacing:2.38766432px;word-spacing:0px;writing-mode:lr-tb;text-anchor:end;fill:#000000;fill-opacity:1;stroke:none;stroke-width:1px;stroke-linecap:butt;stroke-linejoin:miter;stroke-opacity:1"
     d="m 79.598883,44.089993 8.244936,0 0,-36.1240386 q 0,-7.96544576911 -9.991757,-7.96544576911 l -18.306575,0 q -9.921875,0 -9.921875,8.10520466911 l 27.320112,0 q 2.655159,0 2.655159,1.2576999 l 0,8.5943008 -29.975271,0 0,26.132289 7.895582,0 0,-17.957205 22.079689,0 0,17.957205 z"
     inkscape:connector-curvature="0" />
  <path
     id="path4228"
     style="font-style:normal;font-variant:normal;font-weight:bold;font-stretch:normal;font-size:47.75328445px;line-height:108.00000429%;font-family:'Radio Space Bold';-inkscape-font-specification:'Radio Space Bold, Bold';text-align:end;letter-spacing:2.38766432px;word-spacing:0px;writing-mode:lr-tb;text-anchor:end;fill:#000000;fill-opacity:1;stroke:none;stroke-width:1px;stroke-linecap:butt;stroke-linejoin:miter;stroke-opacity:1"
     d="m 129.08274,44.089993 8.10521,0 0,-36.1240386 q 0,-7.96544576911 -9.92189,-7.96544576911 l -18.37644,0 q -9.921896,0 -9.921896,7.96544576911 l 0,36.1240386 8.035326,0 0,-34.7265798 q 0,-1.2576999 2.65516,-1.2576999 l 16.76938,0 q 2.65515,0 2.65515,1.2576999 l 0,34.7265798 z"
     inkscape:connector-curvature="0" />
  <path
     inkscape:connector-curvature="0"
     style="opacity:1;fill:#ff0066;fill-opacity:1;stroke:none;stroke-width:0.12318316;stroke-linecap:round;stroke-linejoin:round;stroke-miterlimit:4;stroke-dasharray:none;stroke-dashoffset:0;stroke-opacity:1"
     id="path4144"
     d="m 188.11196,33.067512 -19.63853,11.022481 -19.63848,-11.022481 0,-22.044992 L 168.47343,-1.3650043e-6 188.11196,11.02252 Z" />
  <path
     sodipodi:nodetypes="cccccccccssscccccsccccccccccccccccc"
     inkscape:connector-curvature="0"
     id="path4231"
     d="m 198.24076,1.1863403e-4 0,44.08984436597 7.66013,0 0,-17.957035 21.41016,0 0,17.957035 7.99611,0 0,-35.9843697 c 30.95396,0 65.05761,0 92.58593,0 1.76187,0 2.64063,0.4193466 2.64063,1.2578199 l 0,7.6171888 c 0,0.652145 -0.87876,0.976562 -2.64063,0.976562 l -26.4961,0 0,26.132809 7.65626,0 0,-18.027354 20.05858,0 c 6.32464,-0.0931 9.48828,-2.676439 9.48828,-7.753898 l 0,-10.410166 c -0.0904,-5.2637176 -3.34282,-7.89843636597 -9.7578,-7.89843636597 -34.10769,0 -70.12437,0 -101.53126,0 l 0,17.95703536597 -21.41016,0 0,-17.95703536597 z M 247.4009,10.410275 l 0,33.679698 7.58986,0 0,-33.679698 z m 34.38281,0 0,33.679698 7.58984,0 0,-33.679698 z"
     style="font-style:normal;font-variant:normal;font-weight:bold;font-stretch:normal;font-size:22.76984596px;line-height:108.00000429%;font-family:'Radio Space Bold';-inkscape-font-specification:'Radio Space Bold, Bold';text-align:end;letter-spacing:-3.43325996px;word-spacing:0px;writing-mode:lr-tb;text-anchor:end;fill:#000000;fill-opacity:1;stroke:none;stroke-width:1px;stroke-linecap:butt;stroke-linejoin:miter;stroke-opacity:1" />
</svg>
