<?xml version="1.0" encoding="UTF-8" standalone="no"?>
<svg
   xmlns:dc="http://purl.org/dc/elements/1.1/"
   xmlns:cc="http://creativecommons.org/ns#"
   xmlns:rdf="http://www.w3.org/1999/02/22-rdf-syntax-ns#"
   xmlns:svg="http://www.w3.org/2000/svg"
   xmlns="http://www.w3.org/2000/svg"
   xmlns:sodipodi="http://sodipodi.sourceforge.net/DTD/sodipodi-0.dtd"
   xmlns:inkscape="http://www.inkscape.org/namespaces/inkscape"
   version="1.1"
   id="svg2"
   viewBox="0 0 370.6001 76.090005"
   height="76.090012"
   width="370.6001"
   inkscape:version="0.91 r13725"
   sodipodi:docname="logo.svg"
   inkscape:export-filename="/mnt/multimedia/personal/justme/encry/projects/-design/nanohttp-logo-transparent-rev.plain.svg.png"
   inkscape:export-xdpi="180"
   inkscape:export-ydpi="180">
  <title
     id="title4151">nanohttp Logo</title>
  <sodipodi:namedview
     pagecolor="#ffffff"
     bordercolor="#666666"
     borderopacity="1"
     objecttolerance="10"
     gridtolerance="10"
     guidetolerance="10"
     inkscape:pageopacity="0"
     inkscape:pageshadow="2"
     inkscape:window-width="3765"
     inkscape:window-height="2118"
     id="namedview67"
     showgrid="false"
     inkscape:snap-page="true"
     inkscape:snap-object-midpoints="true"
     inkscape:snap-center="true"
     inkscape:snap-text-baseline="true"
     inkscape:snap-bbox="true"
     showguides="true"
     inkscape:guide-bbox="true"
     inkscape:bbox-paths="true"
     inkscape:bbox-nodes="true"
     inkscape:snap-bbox-edge-midpoints="true"
     inkscape:snap-bbox-midpoints="true"
     units="px"
     borderlayer="false"
     inkscape:zoom="4.3936508"
     inkscape:cx="230.39212"
     inkscape:cy="-6.5904875"
     inkscape:window-x="75"
     inkscape:window-y="42"
     inkscape:window-maximized="1"
     inkscape:current-layer="g4199"
     fit-margin-top="16"
     fit-margin-left="16"
     fit-margin-right="16"
     fit-margin-bottom="16">
    <sodipodi:guide
       position="216.20727,144.10687"
       orientation="1,0"
       id="guide4147" />
    <sodipodi:guide
       position="-41.294045,66.212727"
       orientation="0,1"
       id="guide4149" />
  </sodipodi:namedview>
  <defs
     id="defs4" />
  <metadata
     id="metadata7">
    <rdf:RDF>
      <cc:Work
         rdf:about="">
        <dc:format>image/svg+xml</dc:format>
        <dc:type
           rdf:resource="http://purl.org/dc/dcmitype/StillImage" />
        <dc:title>nanohttp Logo</dc:title>
        <dc:creator>
          <cc:Agent>
            <dc:title>MeytiGHG</dc:title>
          </cc:Agent>
        </dc:creator>
        <dc:identifier />
        <dc:subject>
          <rdf:Bag>
            <rdf:li>nanohttp</rdf:li>
          </rdf:Bag>
        </dc:subject>
        <dc:description />
        <cc:license
           rdf:resource="http://creativecommons.org/licenses/by/3.0/" />
      </cc:Work>
      <cc:License
         rdf:about="http://creativecommons.org/licenses/by/3.0/">
        <cc:permits
           rdf:resource="http://creativecommons.org/ns#Reproduction" />
        <cc:permits
           rdf:resource="http://creativecommons.org/ns#Distribution" />
        <cc:requires
           rdf:resource="http://creativecommons.org/ns#Notice" />
        <cc:requires
           rdf:resource="http://creativecommons.org/ns#Attribution" />
        <cc:permits
           rdf:resource="http://creativecommons.org/ns#DerivativeWorks" />
      </cc:License>
    </rdf:RDF>
  </metadata>
  <g
     transform="translate(15.999998,-992.27219)"
     id="layer1">
    <g
       id="g4199"
       transform="matrix(0.99999194,0,0,0.99999194,0.25318502,139.49459)">
      <g
         transform="matrix(1.463208,0,0,1.463208,-463.93723,397.41921)"
         style="font-style:normal;font-variant:normal;font-weight:normal;font-stretch:normal;font-size:10px;line-height:108.00000429%;font-family:Vazir;-inkscape-font-specification:'Vazir, Normal';text-align:end;letter-spacing:0px;word-spacing:0px;writing-mode:lr-tb;text-anchor:end;fill:#000000;fill-opacity:1;stroke:none;stroke-width:1px;stroke-linecap:butt;stroke-linejoin:miter;stroke-opacity:1"
         id="flowRoot4146">
        <path
           inkscape:connector-curvature="0"
           d="m 337.47717,352.27784 5.53938,0 0,-24.68845 q 0,-5.44387 -6.78096,-5.44387 l -12.55912,0 q -6.78096,0 -6.78096,5.44387 l 0,24.68845 5.49163,0 0,-23.73338 q 0,-0.85956 1.81462,-0.85956 l 11.46079,0 q 1.81462,0 1.81462,0.85956 l 0,23.73338 z"
           style="font-style:normal;font-variant:normal;font-weight:bold;font-stretch:normal;font-size:47.75328445px;font-family:'Radio Space Bold';-inkscape-font-specification:'Radio Space Bold, Bold';letter-spacing:2.38766432px;fill:#000000"
           id="path4224" />
        <path
           inkscape:connector-curvature="0"
           d="m 371.2962,352.27784 5.63488,0 0,-24.68845 q 0,-5.44387 -6.82872,-5.44387 l -12.51136,0 q -6.78096,0 -6.78096,5.53938 l 18.67153,0 q 1.81463,0 1.81463,0.85956 l 0,5.87365 -20.48616,0 0,17.85973 5.39612,0 0,-12.27259 15.09004,0 0,12.27259 z"
           style="font-style:normal;font-variant:normal;font-weight:bold;font-stretch:normal;font-size:47.75328445px;font-family:'Radio Space Bold';-inkscape-font-specification:'Radio Space Bold, Bold';letter-spacing:2.38766432px;fill:#000000"
           id="path4226" />
        <path
           inkscape:connector-curvature="0"
           d="m 405.11522,352.27784 5.53938,0 0,-24.68845 q 0,-5.44387 -6.78097,-5.44387 l -12.55911,0 q -6.78097,0 -6.78097,5.44387 l 0,24.68845 5.49163,0 0,-23.73338 q 0,-0.85956 1.81463,-0.85956 l 11.46079,0 q 1.81462,0 1.81462,0.85956 l 0,23.73338 z"
           style="font-style:normal;font-variant:normal;font-weight:bold;font-stretch:normal;font-size:47.75328445px;font-family:'Radio Space Bold';-inkscape-font-specification:'Radio Space Bold, Bold';letter-spacing:2.38766432px;fill:#000000"
           id="path4228" />
      </g>
      <path
         inkscape:connector-curvature="0"
         style="opacity:1;fill:#ff0066;fill-opacity:1;stroke:none;stroke-width:0.12318316;stroke-linecap:round;stroke-linejoin:round;stroke-miterlimit:4;stroke-dasharray:none;stroke-dashoffset:0;stroke-opacity:1"
         id="path4144"
         d="m 187.86029,901.85238 -19.63869,11.02258 -19.63863,-11.02258 0,-22.04517 19.63863,-11.02261 19.63869,11.02261 z" />
      <g
         transform="matrix(2.9760669,0,0,3.0686631,200.08851,-1809.3519)"
         style="font-style:normal;font-variant:normal;font-weight:normal;font-stretch:normal;font-size:4.18819332px;line-height:108.00000429%;font-family:Vazir;-inkscape-font-specification:'Vazir, Normal';text-align:end;letter-spacing:0px;word-spacing:0px;writing-mode:lr-tb;text-anchor:end;fill:#000000;fill-opacity:1;stroke:none;stroke-width:1px;stroke-linecap:butt;stroke-linejoin:miter;stroke-opacity:1"
         id="flowRoot4146-3">
        <path
           style="font-style:normal;font-variant:normal;font-weight:bold;font-stretch:normal;font-size:22.76984596px;font-family:'Radio Space Bold';-inkscape-font-specification:'Radio Space Bold, Bold';letter-spacing:-3.43325996px;fill:#000000"
           d="m 114.72852,10.220703 0,22.044922 3.83007,0 0,-8.978516 10.70508,0 0,8.978516 3.99805,0 0,-17.992187 c 15.47698,0 32.52881,0 46.29297,0 0.88093,0 1.32031,0.209668 1.32031,0.628906 l 0,3.808594 c 0,0.326073 -0.43938,0.488281 -1.32031,0.488281 l -13.24805,0 0,13.066406 3.82813,0 0,-9.013672 10.02929,0 c 3.16232,-0.04654 4.74414,-1.338217 4.74414,-3.876953 l 0,-5.205078 c -0.0452,-2.631859 -1.67141,-3.949219 -4.8789,-3.949219 -17.05385,0 -35.06219,0 -50.76563,0 l 0,8.978516 -10.70508,0 0,-8.978516 z m 24.58007,5.205078 0,16.839844 3.79493,0 0,-16.839844 z m 17.19141,0 0,16.839844 3.79492,0 0,-16.839844 z"
           transform="matrix(0.6720333,0,0,0.65175485,-77.806795,866.07587)"
           id="path4231"
           inkscape:connector-curvature="0"
           sodipodi:nodetypes="cccccccccssscccccsccccccccccccccccc" />
      </g>
    </g>
  </g>
</svg>
